<?xml version="1.0" encoding="utf-8"?>
<svg viewBox="0 0 500 500" xmlns="http://www.w3.org/2000/svg">
  <defs>
    <filter id="a" width="1000%" height="1000%" x="-500%" y="-500%">
      <feGaussianBlur in="SourceAlpha"/>
      <feOffset dx="5" dy="3"/>
      <feComponentTransfer result="offsetblur">
        <feFuncA type="linear"/>
      </feComponentTransfer>
      <feFlood flood-color="rgba(0,0,0,0.3)"/>
      <feComposite in2="offsetblur" operator="in"/>
      <feMerge>
        <feMergeNode/>
        <feMergeNode in="SourceGraphic"/>
      </feMerge>
    </filter>
  </defs>
  <path fill="#250095" d="M105 296.4H69.2v-8.6l11.2-2V207H57.8l-2 13.8h-10v-24h82.6v24h-10l-2-13.8H94V286l11 1.9v8.6zm65.2 0h-35.7v-8.6l11.1-2V233l-11.1-1.9v-8.7H159V286l11.1 1.9v8.6zm-11.1-92.2h-14.2v-14.5h14.2v14.5zm56.2 92.2h-35.8v-8.6l11.1-2V233l-11-1.9v-8.7h23.1l1 9.7c2.3-3.6 5.4-6.3 9.1-8.2a28.1 28.1 0 0125.7.6c3.5 2.2 6.2 5.7 8 10.2 2.3-4.2 5.3-7.5 9.2-10 3.8-2.4 8.3-3.6 13.4-3.6 7.5 0 13.5 2.5 17.9 7.7 4.3 5.2 6.5 13 6.5 23.3V286l11.2 1.9v8.6h-35.9v-8.6l11.2-2V252c0-7.3-1.3-12.4-3.8-15.5-2.5-3-6.2-4.5-11.1-4.5-4.7 0-8.5 1.6-11.3 5a21.6 21.6 0 00-5 12.4V286l11.2 1.9v8.6h-35.8v-8.6l11.2-2V252c0-7-1.3-12-3.9-15.2-2.6-3.2-6.3-4.8-11.2-4.8-4 0-7.5.8-10.1 2.5-2.6 1.7-4.7 4-6 7.1V286l11 1.9v8.6zm132 1.4a31.3 31.3 0 01-29.6-17.7 43 43 0 01-4-19.3v-3A40 40 0 01318 239c2.9-5.5 6.7-10 11.5-13.1 4.8-3.2 10-4.8 15.8-4.8 6.6 0 12.2 1.3 16.7 4 4.5 2.8 7.9 6.6 10.1 11.6 2.3 5 3.5 10.7 3.5 17.4v8.4h-48l-.2.4c0 4.7.9 9 2.5 12.6 1.5 3.7 3.8 6.5 6.8 8.6a18 18 0 0010.6 3.2c4.6 0 8.6-.7 12-2 3.5-1.3 6.4-3 9-5.3l5.2 8.7a32.2 32.2 0 01-10.5 6.5 41.8 41.8 0 01-15.7 2.6zm-19.5-46.1l.2.3H362v-1.8c0-3.5-.6-6.7-1.9-9.5a15 15 0 00-15-9c-3 0-5.7.8-8.1 2.6a20.1 20.1 0 00-6.1 7.1 30 30 0 00-3.2 10.3zm72.7 74.6l-4-.4-4-.7 1.4-10.6a48.3 48.3 0 006 .3c2.9 0 5.2-1 7-3.3 1.8-2.2 3.5-5.2 5-9l3.2-7.7-26.1-62.7-8-1.1v-8.7h31v8.7l-8.9 1.4 14.4 37 3.5 9.6h.4l17.1-46.6-9.4-1.4v-8.7h30.4v8.7l-7.7 1-29 75.6a45 45 0 01-5 9.6c-2 2.8-4.3 5-7.1 6.6a20.2 20.2 0 01-10.2 2.4z" filter="url(#a)" style="white-space:pre"/>
  <path fill="#333" d="M99.2 364H88.5l.7-2.6 3.4-.5 2-7.7-5.2-16-2.4-.4.7-2.6h10.2l-.6 2.6-3.5.4 3.4 11.7.2.8.7-.8 9.5-11.7-3.4-.4.7-2.6h10l-.6 2.6-2.7.4-13 15.7-2 8 3.3.6-.7 2.5zm18.2.5c-2 0-3.7-.5-5-1.5-1.2-1-2-2.3-2.4-4-.4-1.7-.3-3.6.3-5.8v-.5c.6-2.2 1.5-4.1 2.7-5.8 1.3-1.7 2.8-3 4.5-4 1.7-1 3.6-1.5 5.6-1.5 2 0 3.7.5 5 1.5 1.2 1 2 2.3 2.4 4 .4 1.7.3 3.6-.3 5.8v.5a17 17 0 01-2.7 5.8c-1.3 1.7-2.8 3-4.5 4-1.7 1-3.6 1.5-5.6 1.5zm.8-3.2c1.3 0 2.4-.4 3.5-1 1-.8 2-1.7 2.7-3a15 15 0 001.7-4.1v-.5c.5-1.5.6-3 .5-4.1a4.7 4.7 0 00-1.3-3c-.7-.6-1.7-1-3-1s-2.4.4-3.5 1a9 9 0 00-2.7 3c-.7 1.2-1.3 2.6-1.7 4.1l-.1.5a12 12 0 00-.4 4.2c.2 1.2.6 2.1 1.3 2.9.7.6 1.7 1 3 1zm22 3.2c-2.4 0-4.1-.8-5-2.4-1-1.5-1.1-4-.3-7.2l2.5-9.9-2.4-.6.6-2.6h6.6l-3.3 13.2c-.6 2.3-.6 4-.1 4.9.4.8 1.4 1.3 2.9 1.3 1.4 0 2.7-.3 3.8-.9 1-.6 2-1.4 2.7-2.5l3.2-12.8-2.8-.6.6-2.6h7l-4.7 19 2.4.6-.7 2.6h-6.1l.5-3.3c-1 1.2-2.1 2.2-3.4 2.8-1.2.6-2.6 1-4 1zm26.5-.5H156l.7-2.6 3.5-.5 4-15.9-3.3-.6.7-2.6h7l-.5 2.9v.4c1-1.2 2-2 3-2.7a6.6 6.6 0 015.6-.6l-1.5 3.7-2.8-.1c-1-.1-2 .1-2.8.7-.9.5-1.6 1.3-2.3 2.2l-3.1 12.6 3.2.6-.7 2.5zm25 .4c-1.6 0-2.8-.5-3.5-1.5-.7-1-.8-2.5-.3-4.6l3.4-13.5h-3.5l.7-3h3.5l1.4-5.3h4l-1.3 5.3h4.8l-.8 3h-4.8l-3.3 13.5c-.3 1-.3 1.9 0 2.4s.8.7 1.5.7l1.7-.1 1.4-.2-.1 2.6a18.4 18.4 0 01-4.7.7zm17.9-.4h-10.8l.7-2.6 3.5-.5 4-15.9-3.3-.6.7-2.6h7.4l-4.8 19 3.2.6-.6 2.6zm3.5-27.6H209l1-4.4h4.3l-1 4.4zm10 27.6h-10.7l.6-2.6 3.5-.5 4-15.9-3.3-.6.7-2.6h7l-.5 3a9.9 9.9 0 017.5-3.3c1.5 0 2.6.3 3.5 1 1 .6 1.5 1.7 1.6 3 1-1.2 2.2-2.2 3.6-3a8.7 8.7 0 014.3-1c2.2 0 3.8.7 4.7 2.3 1 1.5 1 3.8.3 7l-2.6 10 3.2.6-.6 2.6h-10.7l.6-2.6 3.5-.5 2.5-10.2c.6-2.2.6-3.7 0-4.6-.5-1-1.5-1.4-3-1.4-1.4 0-2.6.5-3.7 1.5s-2 2.2-2.4 3.7l-2.8 11 3.2.6-.6 2.5h-10.7l.6-2.6 3.5-.5 2.5-10.2c.5-2 .5-3.6 0-4.5-.5-1-1.5-1.5-3-1.5a6.6 6.6 0 00-5.6 2.9l-3.3 13.3 3.2.6-.6 2.5zm39.5.5c-2 0-3.7-.5-5-1.4a6.6 6.6 0 01-2.5-4 12 12 0 01.2-5.7l.2-1a15.3 15.3 0 017.1-9.5c1.7-1 3.4-1.5 5.1-1.5 2 0 3.6.4 4.7 1.3 1.2.8 1.9 2 2.2 3.4.3 1.5.2 3.2-.3 5.3l-.6 2.5h-14.4a9.3 9.3 0 00-.3 3.9c.2 1 .7 2 1.4 2.6.7.6 1.7.9 3 .9a11.5 11.5 0 006.8-2.2l1 2.6a13.4 13.4 0 01-8.6 2.8zm-2.4-13.9v.1h10.3v-.5c.4-1 .4-2 .2-2.9-.1-.8-.5-1.5-1.2-2a5 5 0 00-5.3 0 11.7 11.7 0 00-4 5.2zm35.3 13.4h-10.7l.6-2.6 3.5-.5 4-15.9-3.3-.6.7-2.6h7l-.5 3c1-1.1 2-2 3.4-2.5 1.2-.6 2.6-.9 4-.9 1.5 0 2.7.4 3.6 1 .9.7 1.4 1.8 1.6 3.1 1-1.2 2.2-2.2 3.6-3a8.7 8.7 0 014.3-1c2.2 0 3.8.7 4.7 2.3 1 1.5 1 3.8.3 7l-2.6 10 3.2.6-.6 2.6h-10.7l.6-2.6 3.5-.5 2.5-10.2c.6-2.2.6-3.7 0-4.6-.5-1-1.5-1.4-3-1.4-1.4 0-2.6.5-3.7 1.5s-2 2.2-2.4 3.7l-2.8 11 3.2.6-.6 2.5h-10.7l.6-2.6 3.5-.5 2.5-10.2c.5-2 .5-3.6 0-4.5-.5-1-1.5-1.5-3-1.5a6.6 6.6 0 00-5.6 2.9l-3.3 13.3 3.2.6-.6 2.5zm36.9.5c-2.3 0-4-.6-4.9-1.7-.9-1.2-1.1-2.7-.6-4.8.3-1.4 1-2.6 2-3.7 1.1-1 2.4-1.8 4-2.4a16 16 0 015.5-.9h4l.5-2.2c.3-1.3.2-2.3-.4-3-.7-.8-1.7-1.2-3.2-1.2a8.6 8.6 0 00-4.6 1.3l-1.2 3h-3.1l1.2-5a16 16 0 018.5-2.5c2.7 0 4.7.7 6 2 1.1 1.2 1.4 3 .8 5.5l-2.6 10.7a89.4 89.4 0 00-.4 1.6l2.1.3-.6 2.5h-5.8a25.2 25.2 0 01.3-3 14 14 0 01-3.5 2.5 9 9 0 01-4 1zm1.4-3.4c1.3 0 2.6-.3 4-1a8.5 8.5 0 002.9-2.3l1-4h-4.1c-1.9 0-3.4.4-4.5 1.3a5.5 5.5 0 00-2.2 3c-.2 1-.1 1.7.4 2.2.4.5 1.3.8 2.5.8zm22.4 3.3c-1.6 0-2.8-.5-3.5-1.5-.7-1-.8-2.5-.3-4.6l3.4-13.5h-3.5l.7-3h3.5l1.4-5.3h4l-1.3 5.3h4.8l-.8 3h-4.8l-3.3 13.5c-.3 1-.3 1.9 0 2.4s.8.7 1.5.7l1.6-.1 1.5-.2-.1 2.6a18.4 18.4 0 01-4.8.7zm15 0c-1.6 0-2.8-.5-3.5-1.5-.7-1-.8-2.5-.3-4.6l3.3-13.5h-3.5l.8-3h3.5l1.3-5.3h4l-1.3 5.3h4.9l-.8 3h-4.8l-3.4 13.5c-.2 1-.2 1.9 0 2.4.4.5.9.7 1.6.7l1.6-.1 1.5-.2-.1 2.6a18.4 18.4 0 01-4.8.7zm16.8 0c-2 0-3.7-.4-5-1.3a6.6 6.6 0 01-2.5-4 12 12 0 01.2-5.7l.2-1a15.3 15.3 0 017.2-9.5c1.7-1 3.4-1.5 5-1.5 2 0 3.6.4 4.8 1.3 1.1.8 1.8 2 2.2 3.4.3 1.5.2 3.2-.3 5.3l-.6 2.5h-14.5a9.3 9.3 0 00-.2 3.9c.2 1 .6 2 1.4 2.6.7.6 1.7.9 3 .9a11.5 11.5 0 006.8-2.2l.9 2.6a13.4 13.4 0 01-8.6 2.8zm-2.3-13.8v.1h10.2l.1-.5c.3-1 .3-2 .2-2.9-.2-.8-.6-1.5-1.2-2a5 5 0 00-5.3 0 11.7 11.7 0 00-4 5.2zm24.7 13.4h-10.7l.7-2.6 3.4-.5 4-15.9-3.2-.6.6-2.6h7l-.4 2.9v.4c.9-1.2 1.9-2 3-2.7a6.6 6.6 0 015.6-.6l-1.5 3.7-2.8-.1c-1-.1-2 .1-2.8.7-1 .5-1.7 1.3-2.3 2.2l-3.1 12.6 3.2.6-.7 2.5z" style="white-space:pre"/>
  <path fill="#250095" d="M250 58a57.8 57.8 0 100 115.6A57.8 57.8 0 00250 58zm0 102.7a45 45 0 110-89.8 45 45 0 010 89.8zm59-103.9a82.7 82.7 0 00-26.5-18l-5 11.8a71.1 71.1 0 0134.4 31.1l11.3-6.4c-3.9-6.8-8.7-13-14.2-18.5zm-86.5-6.4l-5-11.6a84.5 84.5 0 00-40.7 36.8l11.3 6.4a71 71 0 0134.5-31.3zm22.3 72.2l-16.6-16.3-7.7 7.7 24.3 24.3 34.7-34.7-7.7-7.7z"/>
</svg>